<svg width="24" height="24" viewBox="0 0 24 24" fill="none" xmlns="http://www.w3.org/2000/svg">
<path d="M18.942 5.62697H16.4197V4.41967C16.4197 1.98269 14.437 0 12 0C9.56301 0 7.58032 1.98269 7.58032 4.41967V5.62697H5.05802L3.35358 24H20.6465L18.942 5.62697ZM8.60159 4.41967C8.60159 2.54571 10.126 1.02127 12 1.02127C13.8741 1.02127 15.3984 2.54571 15.3984 4.41967V5.62697H8.60159V4.41967ZM5.98853 6.64824H7.58027V9.64771H6.99683V10.669H9.18494V9.64771H8.60154V6.64824H15.3984V9.64771H14.8149V10.669H17.0032V9.64771H16.4197V6.64824H18.0115L19.5264 22.9787H4.47359L5.98853 6.64824Z" fill="black"/>
</svg>
