<svg fill="none" height="70" viewBox="0 0 70 70" width="70" xmlns="http://www.w3.org/2000/svg" xmlns:xlink="http://www.w3.org/1999/xlink"><mask id="a" fill="#fff"><path clip-rule="evenodd" d="m1.9799 35 32.3209-32.32088v64.64178zm49.2163 16.8239-15.4954 15.4954v-30.9908zm1.9799 0 15.8339-15.8339.99-.99-.99-.9899-33.0201-33.02015-.9899-.98995-.99.989951-33.020051 33.020149-.989949.9899.989949.99 33.020051 33.02.99.99.9899-.9899 16.1962-16.1962 10.9977 10.9977.99-.99zm-.99-.9899-16.4853-16.4854v-31.66792l32.3193 32.31932z" fill="#fff" fill-rule="evenodd"/></mask><path clip-rule="evenodd" d="m1.9799 35 32.3209-32.32088v64.64178zm49.2163 16.8239-15.4954 15.4954v-30.9908zm1.9799 0 15.8339-15.8339.99-.99-.99-.9899-33.0201-33.02015-.9899-.98995-.99.989951-33.020051 33.020149-.989949.9899.989949.99 33.020051 33.02.99.99.9899-.9899 16.1962-16.1962 10.9977 10.9977.99-.99zm-.99-.9899-16.4853-16.4854v-31.66792l32.3193 32.31932z" fill="#000" fill-rule="evenodd"/><path d="m34.3008 2.67912h1.6v-3.86274l-2.7314 2.73137zm-32.3209 32.32088-1.131372-1.1314-1.131371 1.1314 1.131371 1.1314zm32.3209 32.3209-1.1314 1.1314 2.7314 2.7313v-3.8627zm1.4-.0016h-1.6v3.8628l2.7314-2.7314zm15.4954-15.4954 1.1313 1.1314 1.1314-1.1314-1.1314-1.1313zm-15.4954-15.4954 1.1314-1.1313-2.7314-2.7314v3.8627zm17.4753 15.4954-1.1314-1.1313-1.1314 1.1313 1.1314 1.1314zm16.8239-16.8239 1.1314 1.1314 1.1313-1.1314-1.1313-1.1314zm-.99-.9899-1.1313 1.1313zm-33.0201-33.02015-1.1313 1.13137zm-.9899-.98995 1.1314-1.13137-1.1314-1.13137-1.1314 1.13137zm-.99.989951-1.1313-1.131372v.000001zm-33.020051 33.020149 1.131371 1.1313zm-.989949.9899-1.13137-1.1314-1.13137 1.1314 1.13137 1.1314zm.989949.99 1.131371-1.1314zm33.020051 33.02-1.1313 1.1314zm.99.99-1.1314 1.1314 1.1314 1.1313 1.1314-1.1313zm.9899-.9899 1.1314 1.1313zm16.1962-16.1962 1.1314-1.1314-1.1314-1.1314-1.1313 1.1314zm10.9977 10.9977-1.1313 1.1313 1.1313 1.1314 1.1314-1.1314zm.99-.99 1.1313 1.1314 1.1314-1.1314-1.1314-1.1313zm-28.473-28.473h-1.6v.6628l.4686.4686zm16.4853 16.4854-1.1313 1.1314 1.1313 1.1313 1.1314-1.1313zm-16.4853-48.15332 1.1314-1.13137-2.7314-2.73137v3.86274zm32.3193 32.31932 1.1314 1.1314 1.1313-1.1314-1.1313-1.1314zm-34.8507-33.45225-32.320872 32.32085 2.262742 2.2628 32.32093-32.32091zm2.7314 65.77315v-64.64178h-3.2v64.64178zm-35.052272-31.1895 32.320872 32.3209 2.2628-2.2628-32.32093-32.3209zm35.983672 32.3193 15.4953-15.4954-2.2627-2.2627-15.4954 15.4954zm-2.7314-32.1222v30.9908h3.2v-30.9908zm18.2267 14.3641-15.4953-15.4954-2.2628 2.2627 15.4954 15.4954zm15.5512-15.834-15.834 15.834 2.2627 2.2627 15.834-15.834zm.9899-.99-.9899.99 2.2627 2.2627.99-.9899zm-.9899 1.2728.9899.99 2.2628-2.2628-.99-.9899zm-33.0201-33.02008 33.0201 33.02008 2.2627-2.2627-33.0201-33.020121zm-.99-.98995.99.98995 2.2627-2.262741-.9899-.989949zm1.2728.98995.99-.98995-2.2628-2.26274-.9899.989949zm-33.02008 33.02008 33.02008-33.02008-2.2627-2.26274-33.020121 33.02012zm-.98995.99.98995-.99-2.262741-2.2627-.989949.9899zm.98995-1.2728-.98995-.99-2.26274 2.2628.989949.9899zm33.02008 33.0201-33.02008-33.0201-2.262741 2.2627 33.020121 33.0201zm.99.9899-.99-.9899-2.2627 2.2627.9899.99zm-1.2728-.9899-.99.9899 2.2628 2.2628.9899-.99zm16.1962-16.1962-16.1962 16.1962 2.2627 2.2627 16.1962-16.1961zm13.2604 10.9977-10.9977-10.9977-2.2627 2.2628 10.9977 10.9976zm-1.2728-.9899-.9899.9899 2.2627 2.2627.9899-.9899zm-10.9977-8.735 10.9977 10.9977 2.2627-2.2627-10.9977-10.9977zm-17.4753-17.4753 16.4854 16.4854 2.2627-2.2628-16.4853-16.4853zm-.4686-32.79932v31.66792h3.2v-31.66792zm35.0507 31.18792-32.3193-32.31929-2.2628 2.26274 32.3193 32.31935zm-15.834 18.0968 15.834-15.834-2.2628-2.2628-15.8339 15.834z" fill="#0536fc" mask="url(#a)"/></svg>