<svg fill="none" height="70" viewBox="0 0 99 70" width="99" xmlns="http://www.w3.org/2000/svg"><path clip-rule="evenodd" d="m49.6332.280946-.3166-.161805-.3174.160195-47.7274 24.088764-1.2718.6419 1.28524.6145 20.48086 9.793v19.3679.4342l.389.1929 26.8467 13.3123.311.1542.311-.1542 16.2902-8.0777v9.3523h1.4v-10.0465l9.1565-4.5404.389-.1929v-.4342-19.531l19.8911-9.6314 1.2661-.6131-1.2526-.6402zm25.8263 35.651254-8.1455 3.9441v18.5139l8.1455-4.039zm-8.1455 2.3886v-5.7224-.4277l-.3805-.1951-17.3012-8.8748-.639 1.2456 16.9207 8.6796v5.9727l-16.6013 8.0384-26.1466-12.502v-.035h-.0731l-19.91859-9.5241 46.13829-23.28664 45.5616 23.28674zm-44.1479-2.2339 25.8466 12.3586.3039.1453.3031-.1468 16.2943-7.8898v18.5302l-16.6012 8.2319-26.1467-12.9651z" fill="#0536fc" fill-rule="evenodd"/></svg>